<svg width="828.6049560546875px" height="183.2849609375px" xmlns="http://www.w3.org/2000/svg" viewBox="-164.30247802734374 -16.642480468749994 828.6049560546875 183.2849609375" style="background: rgba(0, 0, 0, 0);" preserveAspectRatio="xMidYMid"><defs><filter id="editing-extrude-glow"><feFlood flood-color="#241dd8" result="flood-1"></feFlood><feMorphology operator="erode" radius="1" in="SourceAlpha" result="erode"></feMorphology><feComposite operator="in" in="flood-1" in2="erode" result="comp1"></feComposite><feConvolveMatrix order="4,4" divisor="1" in="comp1" result="convolve" kernelMatrix="0 0 0 0 0 0 0 0 1 1 1 1 0 0 0 0"></feConvolveMatrix><feOffset dx="-4" dy="0" in="convolve" result="extrude"></feOffset><feComposite operator="in" in="flood-1" in2="extrude" result="comp-extrude"></feComposite><feFlood flood-color="#3507f7" result="flood-2"></feFlood><feComposite operator="in" in="flood-2" in2="SourceAlpha" result="comp2"></feComposite><feMorphology operator="dilate" radius="1" in="comp2" result="dilate"></feMorphology><feOffset dx="-6" dy="0" in="dilate" result="offset"></feOffset><feGaussianBlur in="offset" stdDeviation="5.8" result="blur"></feGaussianBlur><feComponentTransfer in="blur" result="shadow"><feFuncA type="linear" slope="0.8" intercept="-0.2"></feFuncA></feComponentTransfer><feMerge><feMergeNode in="shadow"></feMergeNode><feMergeNode in="comp-extrude"></feMergeNode><feMergeNode in="SourceGraphic"></feMergeNode></feMerge></filter></defs><g filter="url(#editing-extrude-glow)"><g transform="translate(-43.98498660326004, 114.46500015258789)"><path d="M10.71 2.16L10.71 2.16L10.71 2.16Q5.22 2.16-0.72-0.90L-0.72-0.90L0.90-5.76L0.90-5.76Q4.86-4.50 7.11-4.50L7.11-4.50L7.11-4.50Q13.59-4.50 13.59-12.60L13.59-12.60L13.59-12.60Q13.59-13.86 9.72-58.50L9.72-58.50L31.14-59.85L26.10-12.69L26.10-12.69Q24.48 2.16 10.71 2.16ZM59.22-48.51L59.22-48.51L59.22-48.51Q81-39.78 81-26.82L81-26.82L81-26.82Q81-20.07 77.17-17.05L77.17-17.05L77.17-17.05Q73.35-14.04 63-14.04L63-14.04L63-14.04Q56.43-14.04 52.20-15.03L52.20-15.03L52.20-15.03Q50.49-10.80 50.49-6.21L50.49-6.21L50.49-6.21Q54.54-5.67 59.67-5.67L59.67-5.67L59.67-5.67Q69.03-5.67 77.31-8.64L77.31-8.64L80.01 0.09L80.01 0.09Q73.44 2.16 65.25 2.16L65.25 2.16L65.25 2.16Q50.67 2.16 43.83-3.15L43.83-3.15L43.83-3.15Q42.39-9.54 42.39-15.21L42.39-15.21L42.39-15.21Q42.39-26.55 47.38-35.64L47.38-35.64L47.38-35.64Q52.38-44.73 59.22-48.51ZM54-19.26L54-19.26L54-19.26Q55.17-19.17 59.89-19.17L59.89-19.17L59.89-19.17Q64.62-19.17 70.74-20.43L70.74-20.43L70.74-20.43Q71.01-22.14 71.01-23.85L71.01-23.85L71.01-23.85Q71.01-29.25 68.04-34.20L68.04-34.20L68.04-34.20Q59.13-28.26 54-19.26ZM91.35-29.61L91.35-29.61L91.35-29.61Q91.35-41.13 103.50-50.67L103.50-50.67L118.26-40.77L118.26-40.77Q108.27-34.38 108.27-27.36L108.27-27.36L108.27-27.36Q108.27-23.67 112.36-17.73L112.36-17.73L112.36-17.73Q116.46-11.79 116.46-8.46L116.46-8.46L116.46-8.46Q116.46 3.33 100.26 9.72L100.26 9.72L96.30 4.41L96.30 4.41Q103.41 0.54 103.41-4.14L103.41-4.14L103.41-4.14Q103.41-8.55 97.38-15.30L97.38-15.30L97.38-15.30Q95.13-17.82 93.24-21.69L93.24-21.69L93.24-21.69Q91.35-25.56 91.35-29.61ZM129.06-29.61L129.06-29.61L129.06-29.61Q129.06-41.13 141.21-50.67L141.21-50.67L155.97-40.77L155.97-40.77Q145.98-34.38 145.98-27.36L145.98-27.36L145.98-27.36Q145.98-23.67 150.07-17.73L150.07-17.73L150.07-17.73Q154.17-11.79 154.17-8.46L154.17-8.46L154.17-8.46Q154.17 3.33 137.97 9.72L137.97 9.72L134.01 4.41L134.01 4.41Q141.12 0.54 141.12-4.14L141.12-4.14L141.12-4.14Q141.12-8.55 135.09-15.30L135.09-15.30L135.09-15.30Q132.84-17.82 130.95-21.69L130.95-21.69L130.95-21.69Q129.06-25.56 129.06-29.61ZM182.70-48.51L182.70-48.51L182.70-48.51Q204.48-39.78 204.48-26.82L204.48-26.82L204.48-26.82Q204.48-20.07 200.66-17.05L200.66-17.05L200.66-17.05Q196.83-14.04 186.48-14.04L186.48-14.04L186.48-14.04Q179.91-14.04 175.68-15.03L175.68-15.03L175.68-15.03Q173.97-10.80 173.97-6.21L173.97-6.21L173.97-6.21Q178.02-5.67 183.15-5.67L183.15-5.67L183.15-5.67Q192.51-5.67 200.79-8.64L200.79-8.64L203.49 0.09L203.49 0.09Q196.92 2.16 188.73 2.16L188.73 2.16L188.73 2.16Q174.15 2.16 167.31-3.15L167.31-3.15L167.31-3.15Q165.87-9.54 165.87-15.21L165.87-15.21L165.87-15.21Q165.87-26.55 170.87-35.64L170.87-35.64L170.87-35.64Q175.86-44.73 182.70-48.51ZM177.48-19.26L177.48-19.26L177.48-19.26Q178.65-19.17 183.38-19.17L183.38-19.17L183.38-19.17Q188.10-19.17 194.22-20.43L194.22-20.43L194.22-20.43Q194.49-22.14 194.49-23.85L194.49-23.85L194.49-23.85Q194.49-29.25 191.52-34.20L191.52-34.20L191.52-34.20Q182.61-28.26 177.48-19.26ZM220.14 2.16L220.14 2.16L220.14 2.16Q214.65 2.16 208.71-0.90L208.71-0.90L210.33-5.76L210.33-5.76Q214.29-4.50 216.54-4.50L216.54-4.50L216.54-4.50Q223.02-4.50 223.02-12.60L223.02-12.60L223.02-12.60Q223.02-13.86 219.15-58.50L219.15-58.50L240.57-59.85L235.53-12.69L235.53-12.69Q233.91 2.16 220.14 2.16ZM268.65-48.51L268.65-48.51L268.65-48.51Q290.43-39.78 290.43-26.82L290.43-26.82L290.43-26.82Q290.43-20.07 286.61-17.05L286.61-17.05L286.61-17.05Q282.78-14.04 272.43-14.04L272.43-14.04L272.43-14.04Q265.86-14.04 261.63-15.03L261.63-15.03L261.63-15.03Q259.92-10.80 259.92-6.21L259.92-6.21L259.92-6.21Q263.97-5.67 269.10-5.67L269.10-5.67L269.10-5.67Q278.46-5.67 286.74-8.64L286.74-8.64L289.44 0.09L289.44 0.09Q282.87 2.16 274.68 2.16L274.68 2.16L274.68 2.16Q260.10 2.16 253.26-3.15L253.26-3.15L253.26-3.15Q251.82-9.54 251.82-15.21L251.82-15.21L251.82-15.21Q251.82-26.55 256.81-35.64L256.81-35.64L256.81-35.64Q261.81-44.73 268.65-48.51ZM263.43-19.26L263.43-19.26L263.43-19.26Q264.60-19.17 269.32-19.17L269.32-19.17L269.32-19.17Q274.05-19.17 280.17-20.43L280.17-20.43L280.17-20.43Q280.44-22.14 280.44-23.85L280.44-23.85L280.44-23.85Q280.44-29.25 277.47-34.20L277.47-34.20L277.47-34.20Q268.56-28.26 263.43-19.26ZM300.78-29.61L300.78-29.61L300.78-29.61Q300.78-41.13 312.93-50.67L312.93-50.67L327.69-40.77L327.69-40.77Q317.70-34.38 317.70-27.36L317.70-27.36L317.70-27.36Q317.70-23.67 321.80-17.73L321.80-17.73L321.80-17.73Q325.89-11.79 325.89-8.46L325.89-8.46L325.89-8.46Q325.89 3.33 309.69 9.72L309.69 9.72L305.73 4.41L305.73 4.41Q312.84 0.54 312.84-4.14L312.84-4.14L312.84-4.14Q312.84-8.55 306.81-15.30L306.81-15.30L306.81-15.30Q304.56-17.82 302.67-21.69L302.67-21.69L302.67-21.69Q300.78-25.56 300.78-29.61ZM338.49-29.61L338.49-29.61L338.49-29.61Q338.49-41.13 350.64-50.67L350.64-50.67L365.40-40.77L365.40-40.77Q355.41-34.38 355.41-27.36L355.41-27.36L355.41-27.36Q355.41-23.67 359.50-17.73L359.50-17.73L359.50-17.73Q363.60-11.79 363.60-8.46L363.60-8.46L363.60-8.46Q363.60 3.33 347.40 9.72L347.40 9.72L343.44 4.41L343.44 4.41Q350.55 0.54 350.55-4.14L350.55-4.14L350.55-4.14Q350.55-8.55 344.52-15.30L344.52-15.30L344.52-15.30Q342.27-17.82 340.38-21.69L340.38-21.69L340.38-21.69Q338.49-25.56 338.49-29.61ZM392.13-48.51L392.13-48.51L392.13-48.51Q413.91-39.78 413.91-26.82L413.91-26.82L413.91-26.82Q413.91-20.07 410.08-17.05L410.08-17.05L410.08-17.05Q406.26-14.04 395.91-14.04L395.91-14.04L395.91-14.04Q389.34-14.04 385.11-15.03L385.11-15.03L385.11-15.03Q383.40-10.80 383.40-6.21L383.40-6.21L383.40-6.21Q387.45-5.67 392.58-5.67L392.58-5.67L392.58-5.67Q401.94-5.67 410.22-8.64L410.22-8.64L412.92 0.09L412.92 0.09Q406.35 2.16 398.16 2.16L398.16 2.16L398.16 2.16Q383.58 2.16 376.74-3.15L376.74-3.15L376.74-3.15Q375.30-9.54 375.30-15.21L375.30-15.21L375.30-15.21Q375.30-26.55 380.29-35.64L380.29-35.64L380.29-35.64Q385.29-44.73 392.13-48.51ZM386.91-19.26L386.91-19.26L386.91-19.26Q388.08-19.17 392.80-19.17L392.80-19.17L392.80-19.17Q397.53-19.17 403.65-20.43L403.65-20.43L403.65-20.43Q403.92-22.14 403.92-23.85L403.92-23.85L403.92-23.85Q403.92-29.25 400.95-34.20L400.95-34.20L400.95-34.20Q392.04-28.26 386.91-19.26ZM425.38-1.30L425.38-1.30L425.38-1.30Q423.36-3.51 423.36-7.02L423.36-7.02L423.36-7.02Q423.36-10.53 425.38-12.73L425.38-12.73L425.38-12.73Q427.41-14.94 431.73-14.94L431.73-14.94L431.73-14.94Q436.05-14.94 438.07-12.73L438.07-12.73L438.07-12.73Q440.10-10.53 440.10-7.02L440.10-7.02L440.10-7.02Q440.10-3.51 438.07-1.30L438.07-1.30L438.07-1.30Q436.05 0.90 431.73 0.90L431.73 0.90L431.73 0.90Q427.41 0.90 425.38-1.30ZM455.49 1.98L447.30 0L461.07-20.88L448.20-43.20L467.46-45.90L473.40-29.61L481.50-45.90L489.69-43.92L475.92-23.04L490.50 0L471.24 1.98L463.77-14.76L455.49 1.98ZM521.91 5.22L521.91 5.22Q518.76 13.05 515.38 16.06L515.38 16.06L515.38 16.06Q512.01 19.08 506.47 19.08L506.47 19.08L506.47 19.08Q500.94 19.08 495.90 15.03L495.90 15.03L498.60 10.44L498.60 10.44Q501.57 11.52 505.13 11.52L505.13 11.52L505.13 11.52Q508.68 11.52 511.56 9.18L511.56 9.18L511.56 9.18Q514.44 6.84 515.25 2.07L515.25 2.07L496.62-43.20L515.88-46.17L521.82-11.61L522.54-11.61L534.15-45.90L541.44-43.92L521.91 5.22ZM551.25-39.42L550.98-45.81L587.52-45L588.69-35.64L558.54-5.85L586.44-9.18L586.98 0L548.19 0.81L548.46-4.68L568.71-37.62L551.25-39.42Z" fill="#000000"></path></g></g><style>text {
  font-size: 64px;
  font-family: Arial Black;
  dominant-baseline: central;
  text-anchor: middle;
}</style></svg>